<svg width="17" height="15" viewBox="0 0 17 15" fill="none" xmlns="http://www.w3.org/2000/svg">
<path d="M8.37061 4.80749L10.8041 7.24102L10.8157 7.11355C10.8157 5.83497 9.77666 4.7959 8.49808 4.7959L8.37061 4.80749Z" fill="#A7A3FF"/>
<path d="M8.49801 3.25095C10.6302 3.25095 12.3608 4.98148 12.3608 7.11372C12.3608 7.61201 12.2604 8.08713 12.0865 8.52361L14.3462 10.7833C15.5128 9.80991 16.4321 8.55066 17 7.11372C15.6596 3.72223 12.3647 1.31958 8.49804 1.31958C7.41646 1.31958 6.38126 1.51271 5.41943 1.86035L7.08815 3.52519C7.52459 3.35524 7.99971 3.25095 8.49801 3.25095Z" fill="#A7A3FF"/>
<path d="M0.77254 1.14565L2.53396 2.90707L2.88548 3.25859C1.61077 4.25518 0.60259 5.58012 0 7.11361C1.33653 10.5051 4.63531 12.9077 8.49808 12.9077C9.69555 12.9077 10.8389 12.676 11.8857 12.2549L12.2141 12.5833L14.4661 14.8391L15.4511 13.858L1.75754 0.160645L0.77254 1.14565ZM5.04477 5.41401L6.23837 6.6076C6.2036 6.77371 6.18043 6.93979 6.18043 7.11361C6.18043 8.3922 7.2195 9.43127 8.49808 9.43127C8.6719 9.43127 8.83801 9.40809 9.00025 9.37332L10.1938 10.5669C9.68008 10.8219 9.10842 10.9764 8.49808 10.9764C6.36584 10.9764 4.63531 9.24585 4.63531 7.11361C4.63531 6.50331 4.78983 5.93161 5.04477 5.41401Z" fill="#A7A3FF"/>
</svg>
